<?xml version="1.0" encoding="utf-8"?>
<!-- Generator: Adobe Illustrator 24.3.0, SVG Export Plug-In . SVG Version: 6.00 Build 0)  -->
<svg version="1.1" xmlns="http://www.w3.org/2000/svg" xmlns:xlink="http://www.w3.org/1999/xlink" x="0px" y="0px"
	 viewBox="0 0 908 999" style="enable-background:new 0 0 908 999;" xml:space="preserve">
<style type="text/css">
	.st0{fill:#24253D;}
	.st1{fill:#FADEFF;}
	.st2{fill:#CE33EB;}
	.st3{display:none;fill:#525360;}
	.st4{fill:#7275A3;}
	.st5{fill:#161623;}
</style>
<g id="Слой_4">
	<path class="st0" d="M122.49,514.36C125.06,555.15,177,546,237,557c76.27,13.98,94.12,7.56,101-51
		c6.28-53.48-32.67-81.53-108.9-72.51C167.95,440.72,119.91,473.57,122.49,514.36z"/>
	<circle class="st1" cx="239" cy="498" r="30"/>
	<circle class="st2" cx="239" cy="498" r="28"/>
	<circle class="st0" cx="239" cy="498" r="8"/>
	<path class="st1" d="M236.75,478.58l-9.5,4.1c-0.84,0.36-1.81-0.03-2.17-0.86l-2.68-6.21c-0.36-0.84,0.03-1.81,0.86-2.17l9.5-4.1
		c0.84-0.36,1.81,0.03,2.17,0.86l2.68,6.21C237.97,477.24,237.58,478.21,236.75,478.58z"/>
	<path class="st1" d="M238.24,495.41l-1.88,0.81c-0.84,0.36-1.81-0.03-2.17-0.86l0,0c-0.36-0.84,0.03-1.81,0.86-2.17l1.88-0.81
		c0.84-0.36,1.81,0.03,2.17,0.86l0,0C239.47,494.08,239.08,495.05,238.24,495.41z"/>
	<path class="st1" d="M237.36,489.71l-4.15,1.79c-0.84,0.36-1.81-0.03-2.17-0.86l-0.56-1.31c-0.36-0.84,0.03-1.81,0.86-2.17
		l4.15-1.79c0.84-0.36,1.81,0.03,2.17,0.86l0.56,1.31C238.59,488.37,238.2,489.34,237.36,489.71z"/>
	<path class="st3" d="M247.59,733.7l-16.39-2.86c-3.36-0.59-5.61-3.79-5.02-7.15l7.53-22.57c0.59-3.36,3.31-5.88,6.67-5.3
		l11.15,1.95c3.36,0.59,5.76,4,5.18,7.37l-1.96,23.54C254.16,732.04,250.96,734.29,247.59,733.7z"/>
	
		<ellipse transform="matrix(0.5608 -0.828 0.828 0.5608 -387.6516 361.0222)" class="st4" cx="146.45" cy="545.89" rx="27.53" ry="41.08"/>
	<path class="st5" d="M299,414c12.43-15.01,11.54-34.79,2-44c-15.95-15.4-48.68,5.92-48,9c0.61,2.77,28.9-6.23,34,3
		c4.37,7.9-9.58,26.79-27,35c-10.67,5.03-29.93,9.48-37,1c-10.26-12.31,15.1-39.92,6-50c-8.7-9.64-43.93,2.26-45,15
		c-0.93,11.06,24.63,14.11,27,29c3.96,24.86-60.45,59.38-68,51c-6.67-7.4,32.99-46.03,25-55c-4.72-5.31-25.15,0.84-35,15
		c-9.63,13.83-8.39,34.21,4,50L299,414z"/>
	<path class="st5" d="M348,367c-2.74,0.92,2,27.85-3,35c-8.94,12.77-37.09,18.04-53,11c-9.45,3.52-12.32,9.52-23,8
		c-4.02-0.57-5.3-2.73-9-4c4.96,8.83-25.4,10.11-1,17c33.78,9.54,96,1,104-13C377.66,395.35,352.91,365.35,348,367z"/>
	<g>
		<path class="st5" d="M316.77,580.31c-4.36-7.64,14.26-21.88,22.15-34.55c-7.72,4.18-17.15,8.08-27.78,11.39
			c-0.44,15.8-8.33,38.08,1.96,45.14c13.75,9.43,48.88-15.97,46.84-21.23C358.01,576.03,322.34,590.08,316.77,580.31z"/>
		<path class="st5" d="M256.18,573.48c0.23-2.19,0.84-4.36,1.73-6.47c-8.89,0.55-17.17,0.46-24.52-0.21
			c-2.71,5.84-3.86,12.12-2.2,18.59c6.04,23.59,45.05,32.33,48.44,27.24C282.76,607.9,254.12,593.3,256.18,573.48z"/>
	</g>
	<path class="st4" d="M200.75,569.97c42.31,11.49,102.1,16.7,144.55-24.92c3.7-3.63-0.87-9.53-5.28-6.81
		c-25.57,15.72-69.78,32.01-137.56,23.25C197.12,560.81,195.55,568.56,200.75,569.97z"/>
	<path class="st4" d="M129.53,474.81c55.88-38.28,141.47-79.63,229.43-56.62c7.66,2,4.43,11.52-3.74,10.99
		c-47.37-3.06-122.75,4.25-218.06,54.41C129.64,487.55,122.66,479.51,129.53,474.81z"/>
</g>
</svg>
