<?xml version="1.0" encoding="utf-8"?>
<!-- Generator: Adobe Illustrator 24.3.0, SVG Export Plug-In . SVG Version: 6.00 Build 0)  -->
<svg version="1.1" id="Слой_1" xmlns="http://www.w3.org/2000/svg" xmlns:xlink="http://www.w3.org/1999/xlink" x="0px" y="0px"
	 viewBox="0 0 908 999" style="enable-background:new 0 0 908 999;" xml:space="preserve">
<style type="text/css">
	.st0{fill:#BEC2EA;}
	.st1{fill:#24253D;}
	.st2{fill:#FADEFF;}
	.st3{fill:#CE33EB;}
	.st4{display:none;fill:#525360;}
	.st5{fill:#7275A3;}
	.st6{fill:#161623;}
</style>
<g id="Слой_4">
	<g>
		<path class="st0" d="M110.6,434.3c6.2,98.4,131.5,76.3,276.3,102.9c184,33.7,227.1,18.2,243.7-123.1
			c15.2-129-78.8-196.7-262.8-175C220.2,256.6,104.3,335.9,110.6,434.3z"/>
		<path class="st1" d="M111.1,434.3c0.5,7.1,1.6,14.3,3.6,21.1c1.1,3.4,2.3,6.8,3.9,10c1.6,3.2,3.3,6.3,5.4,9.3
			c2.1,2.9,4.4,5.7,6.9,8.2c2.5,2.5,5.2,4.9,8.1,7c5.8,4.3,12.1,7.7,18.6,10.6c6.6,2.9,13.4,5.1,20.3,7.1c6.9,1.9,13.9,3.5,21,4.8
			c14.1,2.6,28.4,4.4,42.7,6c28.6,3,57.3,5.1,86,8.2c14.3,1.6,28.6,3.4,42.9,5.6c7.1,1.1,14.3,2.3,21.3,3.5
			c7.1,1.2,14.2,2.4,21.3,3.6c14.2,2.3,28.4,4.5,42.6,6.2c14.2,1.7,28.5,3.1,42.8,3.6c14.3,0.5,28.6,0.3,42.5-2
			c13.9-2.2,27.5-6.5,38.8-14.4c5.7-3.9,10.7-8.7,15.1-14c2.2-2.7,4.2-5.5,6-8.4c1.8-3,3.5-6,5.1-9.1c3.1-6.3,5.6-12.9,7.8-19.6
			c2.2-6.7,4-13.6,5.5-20.5c3.1-13.9,5.2-28,6.9-42.2l0.6-5.3l0.5-5.3l0.5-5.3c0.2-1.8,0.2-3.5,0.2-5.3c0.1-3.5,0.3-7.1,0.2-10.6
			c-0.1-3.5,0-7.1-0.4-10.6c-0.9-14-3.6-27.9-8.3-41.1c-4.7-13.1-11.5-25.4-20.3-36.2c-8.8-10.7-19.5-19.9-31.3-27.3
			c-11.8-7.5-24.7-13.2-38-17.7c-13.3-4.5-27.1-7.7-41.1-9.8c-14-2.1-28.2-3.2-42.4-3.8c-28.4-0.8-57,0.9-85.3,4.5
			c-14.1,1.8-28.2,4.1-42.1,7.2c-13.9,3-27.8,6.5-41.4,10.8c-27.2,8.6-53.7,19.7-78.1,34.4c-12.2,7.4-23.9,15.6-34.7,25
			c-10.7,9.4-20.6,19.8-29,31.4c-1,1.5-2.1,2.9-3.1,4.4l-2.9,4.5l-1.4,2.3c-0.5,0.8-0.9,1.6-1.3,2.3l-2.6,4.7l-0.6,1.2l-0.6,1.2
			l-1.1,2.4c-0.7,1.6-1.5,3.2-2.2,4.9l-1.9,5c-0.6,1.7-1.3,3.3-1.7,5.1C112.2,405.5,110.3,419.9,111.1,434.3z M110.1,434.3
			c-0.9-14.4,0.8-29,4.9-42.9c4-13.9,10.7-27,18.8-39c8.2-12,17.8-23,28.5-32.8c10.6-9.9,22.2-18.8,34.4-26.7
			c12.2-7.9,24.9-15,38-21.2c13.1-6.2,26.6-11.8,40.3-16.5c13.8-4.7,27.8-8.7,41.9-12c14.1-3.4,28.5-5.9,42.9-8
			c7.2-1.1,14.4-1.8,21.6-2.5c3.6-0.4,7.2-0.6,10.8-1l5.4-0.4c1.8-0.1,3.6-0.3,5.4-0.4c7.3-0.4,14.5-0.8,21.8-0.8
			c7.3-0.2,14.6,0,21.8,0.1c14.6,0.6,29.1,1.9,43.6,4.1c14.5,2.3,28.8,5.7,42.7,10.5c13.9,4.8,27.4,11.1,39.9,19.2
			c12.4,8.1,23.8,18,33.1,29.6c9.3,11.7,16.5,25,21.3,39c4.9,14,7.5,28.7,8.3,43.4c0.4,3.7,0.2,7.3,0.3,11c0.1,3.7-0.1,7.3-0.3,11
			c-0.1,1.8-0.1,3.7-0.3,5.5l-0.5,5.5l-0.5,5.5l-0.7,5.4c-1.9,14.4-4.1,28.7-7.4,42.9c-1.6,7.1-3.6,14.2-5.9,21.1
			c-2.3,7-5,13.8-8.4,20.4c-1.6,3.3-3.5,6.5-5.5,9.7c-2,3.1-4.2,6.2-6.6,9.1c-4.8,5.8-10.4,10.9-16.6,15.1c-6.2,4.2-13,7.5-20,9.9
			c-7,2.5-14.3,4-21.5,5.2c-14.5,2.2-29.2,2.3-43.7,1.6c-14.5-0.7-28.9-2.2-43.2-4c-14.3-1.9-28.6-4.2-42.8-6.6
			c-7.1-1.3-14.2-2.5-21.3-3.9c-7.1-1.3-14.1-2.7-21.2-3.8c-14.2-2.4-28.4-4.4-42.7-6.2c-28.5-3.6-57.2-6.3-85.8-9.8
			c-14.3-1.8-28.6-3.8-42.7-6.7c-14.1-2.8-28.2-6.5-41.4-12.4c-6.6-2.9-13-6.5-18.8-10.8c-2.9-2.2-5.6-4.6-8.2-7.1
			c-2.5-2.6-4.8-5.4-7-8.3c-2.1-3-3.9-6.1-5.5-9.4c-1.6-3.3-2.9-6.7-3.9-10.1C111.7,448.7,110.5,441.5,110.1,434.3z"/>
	</g>
	<path class="st1" d="M268.4,413.7c2.6,40.8,54.5,31.6,114.5,42.6c76.3,14,94.1,7.6,101-51c6.3-53.5-32.7-81.5-108.9-72.5
		C313.8,340.1,265.8,373,268.4,413.7z"/>
	<circle class="st2" cx="384.9" cy="397.4" r="30"/>
	<circle class="st3" cx="384.9" cy="397.4" r="28"/>
	<circle class="st1" cx="384.9" cy="397.4" r="8"/>
	<path class="st2" d="M382.6,378l-9.5,4.1c-0.8,0.4-1.8,0-2.2-0.9l-2.7-6.2c-0.4-0.8,0-1.8,0.9-2.2l9.5-4.1c0.8-0.4,1.8,0,2.2,0.9
		l2.7,6.2C383.9,376.6,383.5,377.6,382.6,378z"/>
	<path class="st2" d="M384.1,394.8l-1.9,0.8c-0.8,0.4-1.8,0-2.2-0.9l0,0c-0.4-0.8,0-1.8,0.9-2.2l1.9-0.8c0.8-0.4,1.8,0,2.2,0.9l0,0
		C385.4,393.5,385,394.4,384.1,394.8z"/>
	<path class="st2" d="M383.2,389.1l-4.1,1.8c-0.8,0.4-1.8,0-2.2-0.9l-0.6-1.3c-0.4-0.8,0-1.8,0.9-2.2l4.1-1.8c0.8-0.4,1.8,0,2.2,0.9
		l0.6,1.3C384.5,387.8,384.1,388.7,383.2,389.1z"/>
	<path class="st4" d="M393.5,633.1l-16.4-2.9c-3.4-0.6-5.6-3.8-5-7.2l7.5-22.6c0.6-3.4,3.3-5.9,6.7-5.3l11.1,2
		c3.4,0.6,5.8,4,5.2,7.4l-2,23.5C400,631.4,396.8,633.7,393.5,633.1z"/>
	
		<ellipse transform="matrix(0.5608 -0.828 0.828 0.5608 -240.27 437.6397)" class="st5" cx="292.4" cy="445.3" rx="27.5" ry="41.1"/>
	<path class="st6" d="M444.9,313.4c12.4-15,11.5-34.8,2-44c-16-15.4-48.7,5.9-48,9c0.6,2.8,28.9-6.2,34,3c4.4,7.9-9.6,26.8-27,35
		c-10.7,5-29.9,9.5-37,1c-10.3-12.3,15.1-39.9,6-50c-8.7-9.6-43.9,2.3-45,15c-0.9,11.1,24.6,14.1,27,29c4,24.9-60.4,59.4-68,51
		c-6.7-7.4,33-46,25-55c-4.7-5.3-25.1,0.8-35,15c-9.6,13.8-8.4,34.2,4,50L444.9,313.4z"/>
	<path class="st6" d="M493.9,266.4c-2.7,0.9,2,27.9-3,35c-8.9,12.8-37.1,18-53,11c-9.5,3.5-12.3,9.5-23,8c-4-0.6-5.3-2.7-9-4
		c5,8.8-25.4,10.1-1,17c33.8,9.5,96,1,104-13C523.5,294.7,498.8,264.7,493.9,266.4z"/>
	<g>
		<path class="st6" d="M462.7,479.7c-4.4-7.6,14.3-21.9,22.1-34.5c-7.7,4.2-17.1,8.1-27.8,11.4c-0.4,15.8-8.3,38.1,2,45.1
			c13.8,9.4,48.9-16,46.8-21.2C503.9,475.4,468.2,489.5,462.7,479.7z"/>
		<path class="st6" d="M402.1,472.9c0.2-2.2,0.8-4.4,1.7-6.5c-8.9,0.5-17.2,0.5-24.5-0.2c-2.7,5.8-3.9,12.1-2.2,18.6
			c6,23.6,45,32.3,48.4,27.2C428.6,507.3,400,492.7,402.1,472.9z"/>
	</g>
	<path class="st5" d="M346.6,469.4c42.3,11.5,102.1,16.7,144.5-24.9c3.7-3.6-0.9-9.5-5.3-6.8c-25.6,15.7-69.8,32-137.6,23.3
		C343,460.2,341.4,467.9,346.6,469.4z"/>
	<path class="st5" d="M275.4,374.2c55.9-38.3,141.5-79.6,229.4-56.6c7.7,2,4.4,11.5-3.7,11c-47.4-3.1-122.8,4.3-218.1,54.4
		C275.5,386.9,268.5,378.9,275.4,374.2z"/>
</g>
</svg>
